<svg width="94" height="21" viewBox="0 0 94 21" fill="none" xmlns="http://www.w3.org/2000/svg">
<path d="M11.4556 3.152V6.44H4.59163V9.992H9.72763V13.184H4.59163V20H0.487634V3.152H11.4556ZM26.8366 6.608V20H22.7326V18.176C22.3166 18.768 21.7486 19.248 21.0286 19.616C20.3246 19.968 19.5406 20.144 18.6766 20.144C17.6526 20.144 16.7486 19.92 15.9646 19.472C15.1806 19.008 14.5726 18.344 14.1406 17.48C13.7086 16.616 13.4926 15.6 13.4926 14.432V6.608H17.5726V13.88C17.5726 14.776 17.8046 15.472 18.2686 15.968C18.7326 16.464 19.3566 16.712 20.1406 16.712C20.9406 16.712 21.5726 16.464 22.0366 15.968C22.5006 15.472 22.7326 14.776 22.7326 13.88V6.608H26.8366ZM33.8885 8.84C34.3685 8.104 34.9685 7.528 35.6885 7.112C36.4085 6.68 37.2085 6.464 38.0885 6.464V10.808H36.9605C35.9365 10.808 35.1685 11.032 34.6565 11.48C34.1445 11.912 33.8885 12.68 33.8885 13.784V20H29.7845V6.608H33.8885V8.84ZM48.2101 6.464C49.7781 6.464 51.0261 6.976 51.9541 8C52.8981 9.008 53.3701 10.4 53.3701 12.176V20H49.2901V12.728C49.2901 11.832 49.0581 11.136 48.5941 10.64C48.1301 10.144 47.5061 9.896 46.7221 9.896C45.9381 9.896 45.3141 10.144 44.8501 10.64C44.3861 11.136 44.1541 11.832 44.1541 12.728V20H40.0501V6.608H44.1541V8.384C44.5701 7.792 45.1301 7.328 45.8341 6.992C46.5381 6.64 47.3301 6.464 48.2101 6.464ZM58.286 5.216C57.566 5.216 56.974 5.008 56.51 4.592C56.062 4.16 55.838 3.632 55.838 3.008C55.838 2.368 56.062 1.84 56.51 1.424C56.974 0.991999 57.566 0.775999 58.286 0.775999C58.99 0.775999 59.566 0.991999 60.014 1.424C60.478 1.84 60.71 2.368 60.71 3.008C60.71 3.632 60.478 4.16 60.014 4.592C59.566 5.008 58.99 5.216 58.286 5.216ZM60.326 6.608V20H56.222V6.608H60.326ZM67.4041 8.84C67.8841 8.104 68.4841 7.528 69.2041 7.112C69.9241 6.68 70.7241 6.464 71.6041 6.464V10.808H70.4761C69.4521 10.808 68.6841 11.032 68.1721 11.48C67.6601 11.912 67.4041 12.68 67.4041 13.784V20H63.3001V6.608H67.4041V8.84ZM79.6618 20.192C78.3498 20.192 77.1658 19.912 76.1098 19.352C75.0698 18.792 74.2458 17.992 73.6378 16.952C73.0458 15.912 72.7498 14.696 72.7498 13.304C72.7498 11.928 73.0538 10.72 73.6618 9.68C74.2698 8.624 75.1018 7.816 76.1578 7.256C77.2138 6.696 78.3978 6.416 79.7098 6.416C81.0218 6.416 82.2058 6.696 83.2618 7.256C84.3178 7.816 85.1498 8.624 85.7578 9.68C86.3658 10.72 86.6698 11.928 86.6698 13.304C86.6698 14.68 86.3578 15.896 85.7338 16.952C85.1258 17.992 84.2858 18.792 83.2138 19.352C82.1578 19.912 80.9738 20.192 79.6618 20.192ZM79.6618 16.64C80.4458 16.64 81.1098 16.352 81.6538 15.776C82.2138 15.2 82.4938 14.376 82.4938 13.304C82.4938 12.232 82.2218 11.408 81.6778 10.832C81.1498 10.256 80.4938 9.968 79.7098 9.968C78.9098 9.968 78.2458 10.256 77.7178 10.832C77.1898 11.392 76.9258 12.216 76.9258 13.304C76.9258 14.376 77.1818 15.2 77.6938 15.776C78.2218 16.352 78.8778 16.64 79.6618 16.64ZM90.767 20.192C90.047 20.192 89.455 19.984 88.991 19.568C88.543 19.136 88.319 18.608 88.319 17.984C88.319 17.344 88.543 16.808 88.991 16.376C89.455 15.944 90.047 15.728 90.767 15.728C91.471 15.728 92.047 15.944 92.495 16.376C92.959 16.808 93.191 17.344 93.191 17.984C93.191 18.608 92.959 19.136 92.495 19.568C92.047 19.984 91.471 20.192 90.767 20.192Z" fill="black"/>
</svg>
