<svg width="34" height="34" viewBox="0 0 34 34" fill="none" xmlns="http://www.w3.org/2000/svg">
<g filter="url(#filter0_d_117_352)">
<path d="M28.2355 19.1926H11.9523L12.7699 17.5273L26.3543 17.5027C26.8137 17.5027 27.2074 17.1746 27.2894 16.7207L29.1707 6.19062C29.2199 5.91445 29.1461 5.63008 28.9656 5.41406C28.8764 5.30775 28.7652 5.22211 28.6396 5.16309C28.514 5.10407 28.377 5.07308 28.2383 5.07227L10.957 5.01484L10.8094 4.32031C10.7164 3.87734 10.3172 3.55469 9.86328 3.55469H5.63867C5.38267 3.55469 5.13716 3.65638 4.95614 3.8374C4.77513 4.01841 4.67343 4.26393 4.67343 4.51992C4.67343 4.77592 4.77513 5.02143 4.95614 5.20245C5.13716 5.38346 5.38267 5.48516 5.63867 5.48516H9.08124L9.72656 8.55312L11.3152 16.2449L9.26992 19.5836C9.1637 19.727 9.09972 19.8972 9.08523 20.075C9.07073 20.2528 9.10629 20.4312 9.18788 20.5898C9.35195 20.9152 9.68281 21.1203 10.0492 21.1203H11.7664C11.4003 21.6065 11.2026 22.1988 11.2031 22.8074C11.2031 24.3551 12.4609 25.6129 14.0086 25.6129C15.5562 25.6129 16.8141 24.3551 16.8141 22.8074C16.8141 22.1977 16.6117 21.6043 16.2508 21.1203H20.6559C20.2898 21.6065 20.092 22.1988 20.0926 22.8074C20.0926 24.3551 21.3504 25.6129 22.898 25.6129C24.4457 25.6129 25.7035 24.3551 25.7035 22.8074C25.7035 22.1977 25.5012 21.6043 25.1402 21.1203H28.2383C28.7687 21.1203 29.2035 20.6883 29.2035 20.1551C29.2019 19.8994 29.0993 19.6546 28.9179 19.4743C28.7366 19.294 28.4913 19.1927 28.2355 19.1926ZM11.359 6.91797L27.1035 6.96992L25.5613 15.6051L13.1937 15.627L11.359 6.91797ZM14.0086 23.6715C13.5328 23.6715 13.1445 23.2832 13.1445 22.8074C13.1445 22.3316 13.5328 21.9434 14.0086 21.9434C14.4844 21.9434 14.8726 22.3316 14.8726 22.8074C14.8726 23.0366 14.7816 23.2564 14.6196 23.4184C14.4575 23.5805 14.2378 23.6715 14.0086 23.6715ZM22.898 23.6715C22.4223 23.6715 22.034 23.2832 22.034 22.8074C22.034 22.3316 22.4223 21.9434 22.898 21.9434C23.3738 21.9434 23.7621 22.3316 23.7621 22.8074C23.7621 23.0366 23.6711 23.2564 23.509 23.4184C23.347 23.5805 23.1272 23.6715 22.898 23.6715Z" fill="black"/>
</g>
<defs>
<filter id="filter0_d_117_352" x="-1" y="0" width="36" height="36" filterUnits="userSpaceOnUse" color-interpolation-filters="sRGB">
<feFlood flood-opacity="0" result="BackgroundImageFix"/>
<feColorMatrix in="SourceAlpha" type="matrix" values="0 0 0 0 0 0 0 0 0 0 0 0 0 0 0 0 0 0 127 0" result="hardAlpha"/>
<feOffset dy="4"/>
<feGaussianBlur stdDeviation="2"/>
<feComposite in2="hardAlpha" operator="out"/>
<feColorMatrix type="matrix" values="0 0 0 0 0 0 0 0 0 0 0 0 0 0 0 0 0 0 0.25 0"/>
<feBlend mode="normal" in2="BackgroundImageFix" result="effect1_dropShadow_117_352"/>
<feBlend mode="normal" in="SourceGraphic" in2="effect1_dropShadow_117_352" result="shape"/>
</filter>
</defs>
</svg>
